<svg width="26" height="26" viewBox="0 0 26 26" fill="none" xmlns="http://www.w3.org/2000/svg">
<path d="M13 26C9.38889 26 6.31944 24.7361 3.79167 22.2083C1.26389 19.6806 0 16.6111 0 13C0 9.38889 1.26389 6.31944 3.79167 3.79167C6.31944 1.26389 9.38889 0 13 0C13.337 0 13.6681 0.012037 13.9931 0.0361111C14.3181 0.0601852 14.637 0.0962963 14.95 0.144444C13.963 0.842593 13.1745 1.75139 12.5847 2.87083C11.9949 3.99028 11.7 5.2 11.7 6.5C11.7 8.66667 12.4583 10.5083 13.975 12.025C15.4917 13.5417 17.3333 14.3 19.5 14.3C20.8241 14.3 22.0398 14.0051 23.1472 13.4153C24.2546 12.8255 25.1574 12.037 25.8556 11.05C25.9037 11.363 25.9398 11.6819 25.9639 12.0069C25.988 12.3319 26 12.663 26 13C26 16.6111 24.7361 19.6806 22.2083 22.2083C19.6806 24.7361 16.6111 26 13 26ZM13 23.1111C15.1185 23.1111 17.0204 22.5273 18.7056 21.3597C20.3907 20.1921 21.6185 18.6694 22.3889 16.7917C21.9074 16.912 21.4259 17.0083 20.9444 17.0806C20.463 17.1528 19.9815 17.1889 19.5 17.1889C16.5389 17.1889 14.0171 16.1477 11.9347 14.0653C9.85231 11.9829 8.81111 9.46111 8.81111 6.5C8.81111 6.01852 8.84722 5.53704 8.91944 5.05556C8.99167 4.57407 9.08796 4.09259 9.20833 3.61111C7.33056 4.38148 5.80787 5.60926 4.64028 7.29444C3.47269 8.97963 2.88889 10.8815 2.88889 13C2.88889 15.7926 3.87593 18.1759 5.85 20.15C7.82407 22.1241 10.2074 23.1111 13 23.1111Z" fill="#FEF7FF"/>
</svg>
