<svg width="26" height="26" viewBox="0 0 26 26" fill="none" xmlns="http://www.w3.org/2000/svg">
<path d="M13 16.5455C13.9848 16.5455 14.822 16.2008 15.5114 15.5114C16.2008 14.822 16.5455 13.9848 16.5455 13C16.5455 12.0152 16.2008 11.178 15.5114 10.4886C14.822 9.79924 13.9848 9.45455 13 9.45455C12.0152 9.45455 11.178 9.79924 10.4886 10.4886C9.79924 11.178 9.45455 12.0152 9.45455 13C9.45455 13.9848 9.79924 14.822 10.4886 15.5114C11.178 16.2008 12.0152 16.5455 13 16.5455ZM13 18.9091C11.3652 18.9091 9.97159 18.333 8.81932 17.1807C7.66705 16.0284 7.09091 14.6348 7.09091 13C7.09091 11.3652 7.66705 9.97159 8.81932 8.81932C9.97159 7.66705 11.3652 7.09091 13 7.09091C14.6348 7.09091 16.0284 7.66705 17.1807 8.81932C18.333 9.97159 18.9091 11.3652 18.9091 13C18.9091 14.6348 18.333 16.0284 17.1807 17.1807C16.0284 18.333 14.6348 18.9091 13 18.9091ZM4.72727 14.1818H0V11.8182H4.72727V14.1818ZM26 14.1818H21.2727V11.8182H26V14.1818ZM11.8182 4.72727V0H14.1818V4.72727H11.8182ZM11.8182 26V21.2727H14.1818V26H11.8182ZM6.38182 7.97727L3.39773 5.11136L5.08182 3.36818L7.91818 6.32273L6.38182 7.97727ZM20.9182 22.6318L18.0523 19.6477L19.6182 18.0227L22.6023 20.8886L20.9182 22.6318ZM18.0227 6.38182L20.8886 3.39773L22.6318 5.08182L19.6773 7.91818L18.0227 6.38182ZM3.36818 20.9182L6.35227 18.0523L7.97727 19.6182L5.11136 22.6023L3.36818 20.9182Z" fill="#FEF7FF"/>
</svg>
