<svg width="100" height="38" viewBox="0 0 100 38" fill="none" xmlns="http://www.w3.org/2000/svg">
<path d="M1.28 4.464L7.04 4.496V25.648H18.624V30.928H1.28V4.464ZM39.0528 9.616H26.3488V15.152H38.8928V20.272H26.3488V25.808H39.0528V30.928H20.7488V4.464H39.0528V9.616ZM46.7148 30.928H40.3788L50.1388 4.464H56.6667L66.4268 30.928H60.0908L58.0428 24.976H48.7628L46.7148 30.928ZM56.2508 19.856L53.4028 11.632L50.5548 19.856H56.2508ZM73.825 30.928H68.065V25.392H73.825V30.928ZM76.5925 30.928V4.464H82.5125V15.696L90.0005 4.496H96.7205L87.6005 17.84C88.9125 18.224 89.9365 18.736 90.8645 19.376C93.7445 21.392 95.8885 24.56 96.2405 30.928H90.5125C90.0325 24.592 86.5445 22.352 82.6405 22.352H82.5125V30.928H76.5925Z" fill="#22C55E"/>
</svg>
